Disc Title:     Zathura: A Space Adventure – Blu-ray™
Disc Label:     Zathura.A.Space.Adventure.2005.1080p.Blu-ray.AVC.DTS-HD.MA.5.1-CultFilms™
Disc Size:      37,679,783,986 bytes
Protection:     AACS
Extras:         BD-Java
BDInfo:         0.7.5.5

Notes:          

BDINFO HOME:
  Cinema Squid (old)
    http://www.cinemasquid.com/blu-ray/tools/bdinfo
  UniqProject GitHub (new)
   https://github.com/UniqProject/BDInfo

INCLUDES FORUMS REPORT FOR:
  AVS Forum Blu-ray Audio and Video Specifications Thread
    http://www.avsforum.com/avs-vb/showthread.php?t=1155731


********************
PLAYLIST: 00000.MPLS
********************

<--- BEGIN FORUMS PASTE --->
[code]
                                                                                                                Total   Video                                             
Title                                                           Codec   Length  Movie Size      Disc Size       Bitrate Bitrate Main Audio Track                          Secondary Audio Track
-----                                                           ------  ------- --------------  --------------  ------- ------- ------------------                        ---------------------
00000.MPLS                                                      AVC     1:41:20 27,351,232,512  37,679,783,986  35.99   25.87   DTS-HD Master 5.1 3740Kbps (48kHz/24-bit) 
[/code]

[code]

DISC INFO:

Disc Title:     Zathura: A Space Adventure – Blu-ray™
Disc Label:     Zathura.A.Space.Adventure.2005.1080p.Blu-ray.AVC.DTS-HD.MA.5.1-CultFilms™
Disc Size:      37,679,783,986 bytes
Protection:     AACS
Extras:         BD-Java
BDInfo:         0.7.5.5

PLAYLIST REPORT:

Name:                   00000.MPLS
Length:                 1:41:20.074 (h:m:s.ms)
Size:                   27,351,232,512 bytes
Total Bitrate:          35.99 Mbps

(*) Indicates included stream hidden by this playlist.

VIDEO:

Codec                   Bitrate             Description     
-----                   -------             -----------     
MPEG-4 AVC Video        25870 kbps          1080p / 23.976 fps / 16:9 / High Profile 4.1

AUDIO:

Codec                           Language        Bitrate         Description     
-----                           --------        -------         -----------     
DTS-HD Master Audio             English         3740 kbps       5.1 / 48 kHz /  3740 kbps / 24-bit (DTS Core: 5.1 / 48 kHz /  1509 kbps / 24-bit)
Dolby Digital Audio             French          640 kbps        5.1 / 48 kHz /   640 kbps / DN -31dB
Dolby Digital Audio             Portuguese      640 kbps        5.1 / 48 kHz /   640 kbps / DN -31dB
Dolby Digital Audio             Spanish         640 kbps        5.1 / 48 kHz /   640 kbps / DN -31dB
Dolby Digital Audio             Thai            640 kbps        5.1 / 48 kHz /   640 kbps / DN -31dB
Dolby Digital Audio             English         192 kbps        2.0 / 48 kHz /   192 kbps / DN -31dB / Dolby Surround
Dolby Digital Audio             Japanese        640 kbps        5.1 / 48 kHz /   640 kbps / DN -31dB

SUBTITLES:

Codec                           Language        Bitrate         Description     
-----                           --------        -------         -----------     
Presentation Graphics           English         18.384 kbps                     
Presentation Graphics           English         22.641 kbps                     
* Presentation Graphics         English         18.386 kbps                     
* Presentation Graphics         English         22.645 kbps                     
Presentation Graphics           Arabic          11.930 kbps                     
Presentation Graphics           Dutch           19.567 kbps                     
Presentation Graphics           French          16.153 kbps                     
Presentation Graphics           Indonesian      18.819 kbps                     
Presentation Graphics           Korean          13.410 kbps                     
Presentation Graphics           Portuguese      17.843 kbps                     
Presentation Graphics           Spanish         21.276 kbps                     
Presentation Graphics           Thai            18.794 kbps                     
Presentation Graphics           English         75.964 kbps                     
* Presentation Graphics         English         75.985 kbps                     
Presentation Graphics           Chinese         59.462 kbps                     
Presentation Graphics           Dutch           61.872 kbps                     
Presentation Graphics           French          57.812 kbps                     
Presentation Graphics           Korean          54.061 kbps                     
Presentation Graphics           Portuguese      60.300 kbps                     
Presentation Graphics           Spanish         67.465 kbps                     
Presentation Graphics           Thai            67.867 kbps                     
Presentation Graphics           Japanese        16.062 kbps                     
Presentation Graphics           Chinese         18.350 kbps                     

FILES:

Name            Time In         Length          Size            Total Bitrate   
----            -------         ------          ----            -------------   
00001.M2TS      0:00:00.000     1:41:20.074     27,351,232,512  35,988          

CHAPTERS:

Number          Time In         Length          Avg Video Rate  Max 1-Sec Rate  Max 1-Sec Time  Max 5-Sec Rate  Max 5-Sec Time  Max 10Sec Rate  Max 10Sec Time  Avg Frame Size  Max Frame Size  Max Frame Time  
------          -------         ------          --------------  --------------  --------------  --------------  --------------  --------------  --------------  --------------  --------------  --------------  
1               0:00:00.000     0:06:10.328     26,081 kbps     45,586 kbps     00:01:24.292    32,403 kbps     00:01:16.409    31,103 kbps     00:01:16.367    135,961 bytes   686,877 bytes   00:01:24.542    
2               0:06:10.328     0:07:39.041     27,074 kbps     35,361 kbps     00:09:38.077    29,249 kbps     00:11:40.741    28,868 kbps     00:11:35.736    141,149 bytes   564,548 bytes   00:11:40.991    
3               0:13:49.370     0:03:25.205     25,045 kbps     34,153 kbps     00:17:03.897    29,142 kbps     00:17:02.354    27,601 kbps     00:16:56.390    130,572 bytes   586,856 bytes   00:17:04.732    
4               0:17:14.575     0:06:39.607     26,681 kbps     40,520 kbps     00:20:30.771    31,197 kbps     00:20:43.116    30,515 kbps     00:20:36.568    139,103 bytes   610,142 bytes   00:17:54.698    
5               0:23:54.182     0:03:54.275     27,065 kbps     34,979 kbps     00:24:41.480    28,984 kbps     00:27:17.844    28,713 kbps     00:27:12.964    141,104 bytes   524,000 bytes   00:26:12.487    
6               0:27:48.458     0:08:51.614     26,186 kbps     37,380 kbps     00:31:45.194    29,635 kbps     00:31:49.282    28,524 kbps     00:32:10.678    136,523 bytes   597,244 bytes   00:31:45.236    
7               0:36:40.072     0:03:09.272     25,893 kbps     33,758 kbps     00:39:01.464    28,927 kbps     00:39:15.102    28,629 kbps     00:39:12.433    134,994 bytes   654,806 bytes   00:38:23.426    
8               0:39:49.345     0:04:50.248     26,553 kbps     39,761 kbps     00:44:17.988    30,828 kbps     00:44:17.279    28,394 kbps     00:42:58.450    138,437 bytes   610,420 bytes   00:41:17.433    
9               0:44:39.593     0:10:48.814     25,625 kbps     38,924 kbps     00:48:17.019    29,170 kbps     00:48:13.015    28,060 kbps     00:48:08.010    133,598 bytes   593,622 bytes   00:48:58.060    
10              0:55:28.408     0:05:35.960     25,470 kbps     39,824 kbps     00:58:14.991    28,979 kbps     00:59:38.116    27,668 kbps     01:00:41.929    132,788 bytes   615,939 bytes   00:59:42.245    
11              1:01:04.369     0:04:45.827     25,933 kbps     34,428 kbps     01:03:47.114    28,189 kbps     01:01:26.057    27,214 kbps     01:03:07.116    135,203 bytes   558,820 bytes   01:03:47.740    
12              1:05:50.196     0:12:28.622     25,257 kbps     34,507 kbps     01:15:45.749    29,551 kbps     01:07:20.036    28,520 kbps     01:07:20.036    131,678 bytes   770,926 bytes   01:09:31.625    
13              1:18:18.819     0:04:03.368     25,428 kbps     33,801 kbps     01:21:59.581    28,784 kbps     01:20:04.674    27,884 kbps     01:20:25.487    132,571 bytes   497,819 bytes   01:20:21.525    
14              1:22:22.187     0:03:57.987     24,936 kbps     39,159 kbps     01:24:12.213    29,088 kbps     01:24:15.300    27,138 kbps     01:25:35.421    130,007 bytes   623,270 bytes   01:24:51.503    
15              1:26:20.175     0:06:09.118     26,222 kbps     43,207 kbps     01:32:23.496    31,607 kbps     01:32:07.063    28,773 kbps     01:32:16.405    136,709 bytes   551,849 bytes   01:32:17.490    
16              1:32:29.293     0:08:50.780     24,923 kbps     38,256 kbps     01:33:20.928    29,740 kbps     01:36:30.951    28,862 kbps     01:33:24.348    129,945 bytes   745,842 bytes   01:33:21.137    

STREAM DIAGNOSTICS:

File            PID             Type            Codec           Language                Seconds                 Bitrate                 Bytes           Packets         
----            ---             ----            -----           --------                --------------          --------------          -------------   -----           
00001.M2TS      4113 (0x1011)   0x1B            AVC                                     6079.949                25,870                  19,661,360,156  106,941,028     
00001.M2TS      4352 (0x1100)   0x86            DTS-HD MA       eng (English)           6079.949                3,740                   2,842,130,412   16,395,816      
00001.M2TS      4353 (0x1101)   0x81            AC3             fra (French)            6079.949                640                     486,407,680     2,850,045       
00001.M2TS      4354 (0x1102)   0x81            AC3             por (Portuguese)        6079.949                640                     486,407,680     2,850,045       
00001.M2TS      4355 (0x1103)   0x81            AC3             spa (Spanish)           6079.949                640                     486,407,680     2,850,045       
00001.M2TS      4356 (0x1104)   0x81            AC3             tha (Thai)              6079.949                640                     486,407,680     2,850,045       
00001.M2TS      4357 (0x1105)   0x81            AC3             eng (English)           6079.949                192                     145,922,304     950,015         
00001.M2TS      4358 (0x1106)   0x81            AC3             jpn (Japanese)          6079.949                640                     486,407,680     2,850,045       
00001.M2TS      4608 (0x1200)   0x90            PGS             eng (English)           6079.949                18                      13,971,729      83,528          
00001.M2TS      4609 (0x1201)   0x90            PGS             eng (English)           6079.949                23                      17,207,622      99,757          
00001.M2TS      4610 (0x1202)   0x90            PGS             eng (English)           6079.949                18                      13,973,567      83,539          
00001.M2TS      4611 (0x1203)   0x90            PGS             eng (English)           6079.949                23                      17,210,487      99,772          
00001.M2TS      4612 (0x1204)   0x90            PGS             ara (Arabic)            6079.949                12                      9,066,550       55,511          
00001.M2TS      4613 (0x1205)   0x90            PGS             nld (Dutch)             6079.949                20                      14,871,425      86,494          
00001.M2TS      4614 (0x1206)   0x90            PGS             fra (French)            6079.949                16                      12,276,626      72,237          
00001.M2TS      4615 (0x1207)   0x90            PGS             ind (Indonesian)        6079.949                19                      14,302,316      82,243          
00001.M2TS      4616 (0x1208)   0x90            PGS             kor (Korean)            6079.949                13                      10,191,408      61,650          
00001.M2TS      4617 (0x1209)   0x90            PGS             por (Portuguese)        6079.949                18                      13,560,985      79,245          
00001.M2TS      4618 (0x120A)   0x90            PGS             spa (Spanish)           6079.949                21                      16,169,906      94,007          
00001.M2TS      4619 (0x120B)   0x90            PGS             tha (Thai)              6079.949                19                      14,283,444      83,925          
00001.M2TS      4620 (0x120C)   0x90            PGS             eng (English)           6079.949                76                      57,733,360      326,749         
00001.M2TS      4621 (0x120D)   0x90            PGS             eng (English)           6079.949                76                      57,749,431      326,835         
00001.M2TS      4622 (0x120E)   0x90            PGS             zho (Chinese)           6079.949                59                      45,191,386      258,001         
00001.M2TS      4623 (0x120F)   0x90            PGS             nld (Dutch)             6079.949                62                      47,023,593      267,304         
00001.M2TS      4624 (0x1210)   0x90            PGS             fra (French)            6079.949                58                      43,937,527      251,491         
00001.M2TS      4625 (0x1211)   0x90            PGS             kor (Korean)            6079.949                54                      41,086,772      236,172         
00001.M2TS      4626 (0x1212)   0x90            PGS             por (Portuguese)        6079.949                60                      45,828,194      261,547         
00001.M2TS      4627 (0x1213)   0x90            PGS             spa (Spanish)           6079.949                67                      51,274,172      291,250         
00001.M2TS      4628 (0x1214)   0x90            PGS             tha (Thai)              6079.949                68                      51,579,742      293,292         
00001.M2TS      4629 (0x1215)   0x90            PGS             jpn (Japanese)          6079.949                16                      12,207,043      72,331          
00001.M2TS      4630 (0x1216)   0x90            PGS             zho (Chinese)           6079.949                18                      13,945,828      81,975          

[/code]
<---- END FORUMS PASTE ---->

QUICK SUMMARY:

Disc Title: Zathura: A Space Adventure – Blu-ray™
Disc Label: Zathura.A.Space.Adventure.2005.1080p.Blu-ray.AVC.DTS-HD.MA.5.1-CultFilms™
Disc Size: 37,679,783,986 bytes
Protection: AACS
Playlist: 00000.MPLS
Size: 27,351,232,512 bytes
Length: 1:41:20.074
Total Bitrate: 35.99 Mbps
Video: MPEG-4 AVC Video / 25870 kbps / 1080p / 23.976 fps / 16:9 / High Profile 4.1
Audio: English / DTS-HD Master Audio / 5.1 / 48 kHz /  3740 kbps / 24-bit (DTS Core: 5.1 / 48 kHz /  1509 kbps / 24-bit)
Audio: French / Dolby Digital Audio / 5.1 / 48 kHz /   640 kbps / DN -31dB
Audio: Portuguese / Dolby Digital Audio / 5.1 / 48 kHz /   640 kbps / DN -31dB
Audio: Spanish / Dolby Digital Audio / 5.1 / 48 kHz /   640 kbps / DN -31dB
Audio: Thai / Dolby Digital Audio / 5.1 / 48 kHz /   640 kbps / DN -31dB
Audio: English / Dolby Digital Audio / 2.0 / 48 kHz /   192 kbps / DN -31dB / Dolby Surround
Audio: Japanese / Dolby Digital Audio / 5.1 / 48 kHz /   640 kbps / DN -31dB
Subtitle: English / 18.384 kbps
Subtitle: English / 22.641 kbps
* Subtitle: English / 18.386 kbps
* Subtitle: English / 22.645 kbps
Subtitle: Arabic / 11.930 kbps
Subtitle: Dutch / 19.567 kbps
Subtitle: French / 16.153 kbps
Subtitle: Indonesian / 18.819 kbps
Subtitle: Korean / 13.410 kbps
Subtitle: Portuguese / 17.843 kbps
Subtitle: Spanish / 21.276 kbps
Subtitle: Thai / 18.794 kbps
Subtitle: English / 75.964 kbps
* Subtitle: English / 75.985 kbps
Subtitle: Chinese / 59.462 kbps
Subtitle: Dutch / 61.872 kbps
Subtitle: French / 57.812 kbps
Subtitle: Korean / 54.061 kbps
Subtitle: Portuguese / 60.300 kbps
Subtitle: Spanish / 67.465 kbps
Subtitle: Thai / 67.867 kbps
Subtitle: Japanese / 16.062 kbps
Subtitle: Chinese / 18.350 kbps


********************
PLAYLIST: 00001.MPLS
********************

<--- BEGIN FORUMS PASTE --->
[code]
                                                                                                                Total   Video                                             
Title                                                           Codec   Length  Movie Size      Disc Size       Bitrate Bitrate Main Audio Track                          Secondary Audio Track
-----                                                           ------  ------- --------------  --------------  ------- ------- ------------------                        ---------------------
00001.MPLS                                                      AVC     1:41:20 27,351,232,512  37,679,783,986  35.99   25.87   DTS-HD Master 5.1 3740Kbps (48kHz/24-bit) 
[/code]

[code]

DISC INFO:

Disc Title:     Zathura: A Space Adventure – Blu-ray™
Disc Label:     Zathura.A.Space.Adventure.2005.1080p.Blu-ray.AVC.DTS-HD.MA.5.1-CultFilms™
Disc Size:      37,679,783,986 bytes
Protection:     AACS
Extras:         BD-Java
BDInfo:         0.7.5.5

PLAYLIST REPORT:

Name:                   00001.MPLS
Length:                 1:41:20.074 (h:m:s.ms)
Size:                   27,351,232,512 bytes
Total Bitrate:          35.99 Mbps

VIDEO:

Codec                   Bitrate             Description     
-----                   -------             -----------     
MPEG-4 AVC Video        25870 kbps          1080p / 23.976 fps / 16:9 / High Profile 4.1

AUDIO:

Codec                           Language        Bitrate         Description     
-----                           --------        -------         -----------     
DTS-HD Master Audio             English         3740 kbps       5.1 / 48 kHz /  3740 kbps / 24-bit (DTS Core: 5.1 / 48 kHz /  1509 kbps / 24-bit)
Dolby Digital Audio             French          640 kbps        5.1 / 48 kHz /   640 kbps / DN -31dB
Dolby Digital Audio             Portuguese      640 kbps        5.1 / 48 kHz /   640 kbps / DN -31dB
Dolby Digital Audio             Spanish         640 kbps        5.1 / 48 kHz /   640 kbps / DN -31dB
Dolby Digital Audio             Thai            640 kbps        5.1 / 48 kHz /   640 kbps / DN -31dB
Dolby Digital Audio             English         192 kbps        2.0 / 48 kHz /   192 kbps / DN -31dB / Dolby Surround
Dolby Digital Audio             Japanese        640 kbps        5.1 / 48 kHz /   640 kbps / DN -31dB

SUBTITLES:

Codec                           Language        Bitrate         Description     
-----                           --------        -------         -----------     
Presentation Graphics           English         18.384 kbps                     
Presentation Graphics           English         22.641 kbps                     
Presentation Graphics           English         18.386 kbps                     
Presentation Graphics           English         22.645 kbps                     
Presentation Graphics           Arabic          11.930 kbps                     
Presentation Graphics           Dutch           19.567 kbps                     
Presentation Graphics           French          16.153 kbps                     
Presentation Graphics           Indonesian      18.819 kbps                     
Presentation Graphics           Korean          13.410 kbps                     
Presentation Graphics           Portuguese      17.843 kbps                     
Presentation Graphics           Spanish         21.276 kbps                     
Presentation Graphics           Thai            18.794 kbps                     
Presentation Graphics           English         75.964 kbps                     
Presentation Graphics           English         75.985 kbps                     
Presentation Graphics           Chinese         59.462 kbps                     
Presentation Graphics           Dutch           61.872 kbps                     
Presentation Graphics           French          57.812 kbps                     
Presentation Graphics           Korean          54.061 kbps                     
Presentation Graphics           Portuguese      60.300 kbps                     
Presentation Graphics           Spanish         67.465 kbps                     
Presentation Graphics           Thai            67.867 kbps                     
Presentation Graphics           Japanese        16.062 kbps                     
Presentation Graphics           Chinese         18.350 kbps                     

FILES:

Name            Time In         Length          Size            Total Bitrate   
----            -------         ------          ----            -------------   
00001.M2TS      0:00:00.000     1:41:20.074     27,351,232,512  35,988          

CHAPTERS:

Number          Time In         Length          Avg Video Rate  Max 1-Sec Rate  Max 1-Sec Time  Max 5-Sec Rate  Max 5-Sec Time  Max 10Sec Rate  Max 10Sec Time  Avg Frame Size  Max Frame Size  Max Frame Time  
------          -------         ------          --------------  --------------  --------------  --------------  --------------  --------------  --------------  --------------  --------------  --------------  
1               0:00:00.000     0:06:10.328     26,081 kbps     45,586 kbps     00:01:24.292    32,403 kbps     00:01:16.409    31,103 kbps     00:01:16.367    135,961 bytes   686,877 bytes   00:01:24.542    
2               0:06:10.328     0:07:39.041     27,074 kbps     35,361 kbps     00:09:38.077    29,249 kbps     00:11:40.741    28,868 kbps     00:11:35.736    141,149 bytes   564,548 bytes   00:11:40.991    
3               0:13:49.370     0:03:25.205     25,045 kbps     34,153 kbps     00:17:03.897    29,142 kbps     00:17:02.354    27,601 kbps     00:16:56.390    130,572 bytes   586,856 bytes   00:17:04.732    
4               0:17:14.575     0:06:39.607     26,681 kbps     40,520 kbps     00:20:30.771    31,197 kbps     00:20:43.116    30,515 kbps     00:20:36.568    139,103 bytes   610,142 bytes   00:17:54.698    
5               0:23:54.182     0:03:54.275     27,065 kbps     34,979 kbps     00:24:41.480    28,984 kbps     00:27:17.844    28,713 kbps     00:27:12.964    141,104 bytes   524,000 bytes   00:26:12.487    
6               0:27:48.458     0:08:51.614     26,186 kbps     37,380 kbps     00:31:45.194    29,635 kbps     00:31:49.282    28,524 kbps     00:32:10.678    136,523 bytes   597,244 bytes   00:31:45.236    
7               0:36:40.072     0:03:09.272     25,893 kbps     33,758 kbps     00:39:01.464    28,927 kbps     00:39:15.102    28,629 kbps     00:39:12.433    134,994 bytes   654,806 bytes   00:38:23.426    
8               0:39:49.345     0:04:50.248     26,553 kbps     39,761 kbps     00:44:17.988    30,828 kbps     00:44:17.279    28,394 kbps     00:42:58.450    138,437 bytes   610,420 bytes   00:41:17.433    
9               0:44:39.593     0:10:48.814     25,625 kbps     38,924 kbps     00:48:17.019    29,170 kbps     00:48:13.015    28,060 kbps     00:48:08.010    133,598 bytes   593,622 bytes   00:48:58.060    
10              0:55:28.408     0:05:35.960     25,470 kbps     39,824 kbps     00:58:14.991    28,979 kbps     00:59:38.116    27,668 kbps     01:00:41.929    132,788 bytes   615,939 bytes   00:59:42.245    
11              1:01:04.369     0:04:45.827     25,933 kbps     34,428 kbps     01:03:47.114    28,189 kbps     01:01:26.057    27,214 kbps     01:03:07.116    135,203 bytes   558,820 bytes   01:03:47.740    
12              1:05:50.196     0:12:28.622     25,257 kbps     34,507 kbps     01:15:45.749    29,551 kbps     01:07:20.036    28,520 kbps     01:07:20.036    131,678 bytes   770,926 bytes   01:09:31.625    
13              1:18:18.819     0:04:03.368     25,428 kbps     33,801 kbps     01:21:59.581    28,784 kbps     01:20:04.674    27,884 kbps     01:20:25.487    132,571 bytes   497,819 bytes   01:20:21.525    
14              1:22:22.187     0:03:57.987     24,936 kbps     39,159 kbps     01:24:12.213    29,088 kbps     01:24:15.300    27,138 kbps     01:25:35.421    130,007 bytes   623,270 bytes   01:24:51.503    
15              1:26:20.175     0:06:09.118     26,222 kbps     43,207 kbps     01:32:23.496    31,607 kbps     01:32:07.063    28,773 kbps     01:32:16.405    136,709 bytes   551,849 bytes   01:32:17.490    
16              1:32:29.293     0:08:50.780     24,923 kbps     38,256 kbps     01:33:20.928    29,740 kbps     01:36:30.951    28,862 kbps     01:33:24.348    129,945 bytes   745,842 bytes   01:33:21.137    

STREAM DIAGNOSTICS:

File            PID             Type            Codec           Language                Seconds                 Bitrate                 Bytes           Packets         
----            ---             ----            -----           --------                --------------          --------------          -------------   -----           
00001.M2TS      4113 (0x1011)   0x1B            AVC                                     6079.949                25,870                  19,661,360,156  106,941,028     
00001.M2TS      4352 (0x1100)   0x86            DTS-HD MA       eng (English)           6079.949                3,740                   2,842,130,412   16,395,816      
00001.M2TS      4353 (0x1101)   0x81            AC3             fra (French)            6079.949                640                     486,407,680     2,850,045       
00001.M2TS      4354 (0x1102)   0x81            AC3             por (Portuguese)        6079.949                640                     486,407,680     2,850,045       
00001.M2TS      4355 (0x1103)   0x81            AC3             spa (Spanish)           6079.949                640                     486,407,680     2,850,045       
00001.M2TS      4356 (0x1104)   0x81            AC3             tha (Thai)              6079.949                640                     486,407,680     2,850,045       
00001.M2TS      4357 (0x1105)   0x81            AC3             eng (English)           6079.949                192                     145,922,304     950,015         
00001.M2TS      4358 (0x1106)   0x81            AC3             jpn (Japanese)          6079.949                640                     486,407,680     2,850,045       
00001.M2TS      4608 (0x1200)   0x90            PGS             eng (English)           6079.949                18                      13,971,729      83,528          
00001.M2TS      4609 (0x1201)   0x90            PGS             eng (English)           6079.949                23                      17,207,622      99,757          
00001.M2TS      4610 (0x1202)   0x90            PGS             eng (English)           6079.949                18                      13,973,567      83,539          
00001.M2TS      4611 (0x1203)   0x90            PGS             eng (English)           6079.949                23                      17,210,487      99,772          
00001.M2TS      4612 (0x1204)   0x90            PGS             ara (Arabic)            6079.949                12                      9,066,550       55,511          
00001.M2TS      4613 (0x1205)   0x90            PGS             nld (Dutch)             6079.949                20                      14,871,425      86,494          
00001.M2TS      4614 (0x1206)   0x90            PGS             fra (French)            6079.949                16                      12,276,626      72,237          
00001.M2TS      4615 (0x1207)   0x90            PGS             ind (Indonesian)        6079.949                19                      14,302,316      82,243          
00001.M2TS      4616 (0x1208)   0x90            PGS             kor (Korean)            6079.949                13                      10,191,408      61,650          
00001.M2TS      4617 (0x1209)   0x90            PGS             por (Portuguese)        6079.949                18                      13,560,985      79,245          
00001.M2TS      4618 (0x120A)   0x90            PGS             spa (Spanish)           6079.949                21                      16,169,906      94,007          
00001.M2TS      4619 (0x120B)   0x90            PGS             tha (Thai)              6079.949                19                      14,283,444      83,925          
00001.M2TS      4620 (0x120C)   0x90            PGS             eng (English)           6079.949                76                      57,733,360      326,749         
00001.M2TS      4621 (0x120D)   0x90            PGS             eng (English)           6079.949                76                      57,749,431      326,835         
00001.M2TS      4622 (0x120E)   0x90            PGS             zho (Chinese)           6079.949                59                      45,191,386      258,001         
00001.M2TS      4623 (0x120F)   0x90            PGS             nld (Dutch)             6079.949                62                      47,023,593      267,304         
00001.M2TS      4624 (0x1210)   0x90            PGS             fra (French)            6079.949                58                      43,937,527      251,491         
00001.M2TS      4625 (0x1211)   0x90            PGS             kor (Korean)            6079.949                54                      41,086,772      236,172         
00001.M2TS      4626 (0x1212)   0x90            PGS             por (Portuguese)        6079.949                60                      45,828,194      261,547         
00001.M2TS      4627 (0x1213)   0x90            PGS             spa (Spanish)           6079.949                67                      51,274,172      291,250         
00001.M2TS      4628 (0x1214)   0x90            PGS             tha (Thai)              6079.949                68                      51,579,742      293,292         
00001.M2TS      4629 (0x1215)   0x90            PGS             jpn (Japanese)          6079.949                16                      12,207,043      72,331          
00001.M2TS      4630 (0x1216)   0x90            PGS             zho (Chinese)           6079.949                18                      13,945,828      81,975          

[/code]
<---- END FORUMS PASTE ---->

QUICK SUMMARY:

Disc Title: Zathura: A Space Adventure – Blu-ray™
Disc Label: Zathura.A.Space.Adventure.2005.1080p.Blu-ray.AVC.DTS-HD.MA.5.1-CultFilms™
Disc Size: 37,679,783,986 bytes
Protection: AACS
Playlist: 00001.MPLS
Size: 27,351,232,512 bytes
Length: 1:41:20.074
Total Bitrate: 35.99 Mbps
Video: MPEG-4 AVC Video / 25870 kbps / 1080p / 23.976 fps / 16:9 / High Profile 4.1
Audio: English / DTS-HD Master Audio / 5.1 / 48 kHz /  3740 kbps / 24-bit (DTS Core: 5.1 / 48 kHz /  1509 kbps / 24-bit)
Audio: French / Dolby Digital Audio / 5.1 / 48 kHz /   640 kbps / DN -31dB
Audio: Portuguese / Dolby Digital Audio / 5.1 / 48 kHz /   640 kbps / DN -31dB
Audio: Spanish / Dolby Digital Audio / 5.1 / 48 kHz /   640 kbps / DN -31dB
Audio: Thai / Dolby Digital Audio / 5.1 / 48 kHz /   640 kbps / DN -31dB
Audio: English / Dolby Digital Audio / 2.0 / 48 kHz /   192 kbps / DN -31dB / Dolby Surround
Audio: Japanese / Dolby Digital Audio / 5.1 / 48 kHz /   640 kbps / DN -31dB
Subtitle: English / 18.384 kbps
Subtitle: English / 22.641 kbps
Subtitle: English / 18.386 kbps
Subtitle: English / 22.645 kbps
Subtitle: Arabic / 11.930 kbps
Subtitle: Dutch / 19.567 kbps
Subtitle: French / 16.153 kbps
Subtitle: Indonesian / 18.819 kbps
Subtitle: Korean / 13.410 kbps
Subtitle: Portuguese / 17.843 kbps
Subtitle: Spanish / 21.276 kbps
Subtitle: Thai / 18.794 kbps
Subtitle: English / 75.964 kbps
Subtitle: English / 75.985 kbps
Subtitle: Chinese / 59.462 kbps
Subtitle: Dutch / 61.872 kbps
Subtitle: French / 57.812 kbps
Subtitle: Korean / 54.061 kbps
Subtitle: Portuguese / 60.300 kbps
Subtitle: Spanish / 67.465 kbps
Subtitle: Thai / 67.867 kbps
Subtitle: Japanese / 16.062 kbps
Subtitle: Chinese / 18.350 kbps


********************
PLAYLIST: 00002.MPLS
********************

<--- BEGIN FORUMS PASTE --->
[code]
                                                                                                                Total   Video                                             
Title                                                           Codec   Length  Movie Size      Disc Size       Bitrate Bitrate Main Audio Track                          Secondary Audio Track
-----                                                           ------  ------- --------------  --------------  ------- ------- ------------------                        ---------------------
00002.MPLS                                                      AVC     1:41:20 27,351,232,512  37,679,783,986  35.99   25.87   DTS-HD Master 5.1 3740Kbps (48kHz/24-bit) 
[/code]

[code]

DISC INFO:

Disc Title:     Zathura: A Space Adventure – Blu-ray™
Disc Label:     Zathura.A.Space.Adventure.2005.1080p.Blu-ray.AVC.DTS-HD.MA.5.1-CultFilms™
Disc Size:      37,679,783,986 bytes
Protection:     AACS
Extras:         BD-Java
BDInfo:         0.7.5.5

PLAYLIST REPORT:

Name:                   00002.MPLS
Length:                 1:41:20.074 (h:m:s.ms)
Size:                   27,351,232,512 bytes
Total Bitrate:          35.99 Mbps

(*) Indicates included stream hidden by this playlist.

VIDEO:

Codec                   Bitrate             Description     
-----                   -------             -----------     
MPEG-4 AVC Video        25870 kbps          1080p / 23.976 fps / 16:9 / High Profile 4.1

AUDIO:

Codec                           Language        Bitrate         Description     
-----                           --------        -------         -----------     
DTS-HD Master Audio             English         3740 kbps       5.1 / 48 kHz /  3740 kbps / 24-bit (DTS Core: 5.1 / 48 kHz /  1509 kbps / 24-bit)
Dolby Digital Audio             French          640 kbps        5.1 / 48 kHz /   640 kbps / DN -31dB
Dolby Digital Audio             Portuguese      640 kbps        5.1 / 48 kHz /   640 kbps / DN -31dB
Dolby Digital Audio             Spanish         640 kbps        5.1 / 48 kHz /   640 kbps / DN -31dB
Dolby Digital Audio             Thai            640 kbps        5.1 / 48 kHz /   640 kbps / DN -31dB
Dolby Digital Audio             English         192 kbps        2.0 / 48 kHz /   192 kbps / DN -31dB / Dolby Surround
Dolby Digital Audio             Japanese        640 kbps        5.1 / 48 kHz /   640 kbps / DN -31dB

SUBTITLES:

Codec                           Language        Bitrate         Description     
-----                           --------        -------         -----------     
* Presentation Graphics         English         18.384 kbps                     
* Presentation Graphics         English         22.641 kbps                     
Presentation Graphics           English         18.386 kbps                     
Presentation Graphics           English         22.645 kbps                     
Presentation Graphics           Arabic          11.930 kbps                     
Presentation Graphics           Dutch           19.567 kbps                     
Presentation Graphics           French          16.153 kbps                     
Presentation Graphics           Indonesian      18.819 kbps                     
Presentation Graphics           Korean          13.410 kbps                     
Presentation Graphics           Portuguese      17.843 kbps                     
Presentation Graphics           Spanish         21.276 kbps                     
Presentation Graphics           Thai            18.794 kbps                     
* Presentation Graphics         English         75.964 kbps                     
Presentation Graphics           English         75.985 kbps                     
Presentation Graphics           Chinese         59.462 kbps                     
Presentation Graphics           Dutch           61.872 kbps                     
Presentation Graphics           French          57.812 kbps                     
Presentation Graphics           Korean          54.061 kbps                     
Presentation Graphics           Portuguese      60.300 kbps                     
Presentation Graphics           Spanish         67.465 kbps                     
Presentation Graphics           Thai            67.867 kbps                     
Presentation Graphics           Japanese        16.062 kbps                     
Presentation Graphics           Chinese         18.350 kbps                     

FILES:

Name            Time In         Length          Size            Total Bitrate   
----            -------         ------          ----            -------------   
00001.M2TS      0:00:00.000     1:41:20.074     27,351,232,512  35,988          

CHAPTERS:

Number          Time In         Length          Avg Video Rate  Max 1-Sec Rate  Max 1-Sec Time  Max 5-Sec Rate  Max 5-Sec Time  Max 10Sec Rate  Max 10Sec Time  Avg Frame Size  Max Frame Size  Max Frame Time  
------          -------         ------          --------------  --------------  --------------  --------------  --------------  --------------  --------------  --------------  --------------  --------------  
1               0:00:00.000     0:06:10.328     26,081 kbps     45,586 kbps     00:01:24.292    32,403 kbps     00:01:16.409    31,103 kbps     00:01:16.367    135,961 bytes   686,877 bytes   00:01:24.542    
2               0:06:10.328     0:07:39.041     27,074 kbps     35,361 kbps     00:09:38.077    29,249 kbps     00:11:40.741    28,868 kbps     00:11:35.736    141,149 bytes   564,548 bytes   00:11:40.991    
3               0:13:49.370     0:03:25.205     25,045 kbps     34,153 kbps     00:17:03.897    29,142 kbps     00:17:02.354    27,601 kbps     00:16:56.390    130,572 bytes   586,856 bytes   00:17:04.732    
4               0:17:14.575     0:06:39.607     26,681 kbps     40,520 kbps     00:20:30.771    31,197 kbps     00:20:43.116    30,515 kbps     00:20:36.568    139,103 bytes   610,142 bytes   00:17:54.698    
5               0:23:54.182     0:03:54.275     27,065 kbps     34,979 kbps     00:24:41.480    28,984 kbps     00:27:17.844    28,713 kbps     00:27:12.964    141,104 bytes   524,000 bytes   00:26:12.487    
6               0:27:48.458     0:08:51.614     26,186 kbps     37,380 kbps     00:31:45.194    29,635 kbps     00:31:49.282    28,524 kbps     00:32:10.678    136,523 bytes   597,244 bytes   00:31:45.236    
7               0:36:40.072     0:03:09.272     25,893 kbps     33,758 kbps     00:39:01.464    28,927 kbps     00:39:15.102    28,629 kbps     00:39:12.433    134,994 bytes   654,806 bytes   00:38:23.426    
8               0:39:49.345     0:04:50.248     26,553 kbps     39,761 kbps     00:44:17.988    30,828 kbps     00:44:17.279    28,394 kbps     00:42:58.450    138,437 bytes   610,420 bytes   00:41:17.433    
9               0:44:39.593     0:10:48.814     25,625 kbps     38,924 kbps     00:48:17.019    29,170 kbps     00:48:13.015    28,060 kbps     00:48:08.010    133,598 bytes   593,622 bytes   00:48:58.060    
10              0:55:28.408     0:05:35.960     25,470 kbps     39,824 kbps     00:58:14.991    28,979 kbps     00:59:38.116    27,668 kbps     01:00:41.929    132,788 bytes   615,939 bytes   00:59:42.245    
11              1:01:04.369     0:04:45.827     25,933 kbps     34,428 kbps     01:03:47.114    28,189 kbps     01:01:26.057    27,214 kbps     01:03:07.116    135,203 bytes   558,820 bytes   01:03:47.740    
12              1:05:50.196     0:12:28.622     25,257 kbps     34,507 kbps     01:15:45.749    29,551 kbps     01:07:20.036    28,520 kbps     01:07:20.036    131,678 bytes   770,926 bytes   01:09:31.625    
13              1:18:18.819     0:04:03.368     25,428 kbps     33,801 kbps     01:21:59.581    28,784 kbps     01:20:04.674    27,884 kbps     01:20:25.487    132,571 bytes   497,819 bytes   01:20:21.525    
14              1:22:22.187     0:03:57.987     24,936 kbps     39,159 kbps     01:24:12.213    29,088 kbps     01:24:15.300    27,138 kbps     01:25:35.421    130,007 bytes   623,270 bytes   01:24:51.503    
15              1:26:20.175     0:06:09.118     26,222 kbps     43,207 kbps     01:32:23.496    31,607 kbps     01:32:07.063    28,773 kbps     01:32:16.405    136,709 bytes   551,849 bytes   01:32:17.490    
16              1:32:29.293     0:08:50.780     24,923 kbps     38,256 kbps     01:33:20.928    29,740 kbps     01:36:30.951    28,862 kbps     01:33:24.348    129,945 bytes   745,842 bytes   01:33:21.137    

STREAM DIAGNOSTICS:

File            PID             Type            Codec           Language                Seconds                 Bitrate                 Bytes           Packets         
----            ---             ----            -----           --------                --------------          --------------          -------------   -----           
00001.M2TS      4113 (0x1011)   0x1B            AVC                                     6079.949                25,870                  19,661,360,156  106,941,028     
00001.M2TS      4352 (0x1100)   0x86            DTS-HD MA       eng (English)           6079.949                3,740                   2,842,130,412   16,395,816      
00001.M2TS      4353 (0x1101)   0x81            AC3             fra (French)            6079.949                640                     486,407,680     2,850,045       
00001.M2TS      4354 (0x1102)   0x81            AC3             por (Portuguese)        6079.949                640                     486,407,680     2,850,045       
00001.M2TS      4355 (0x1103)   0x81            AC3             spa (Spanish)           6079.949                640                     486,407,680     2,850,045       
00001.M2TS      4356 (0x1104)   0x81            AC3             tha (Thai)              6079.949                640                     486,407,680     2,850,045       
00001.M2TS      4357 (0x1105)   0x81            AC3             eng (English)           6079.949                192                     145,922,304     950,015         
00001.M2TS      4358 (0x1106)   0x81            AC3             jpn (Japanese)          6079.949                640                     486,407,680     2,850,045       
00001.M2TS      4608 (0x1200)   0x90            PGS             eng (English)           6079.949                18                      13,971,729      83,528          
00001.M2TS      4609 (0x1201)   0x90            PGS             eng (English)           6079.949                23                      17,207,622      99,757          
00001.M2TS      4610 (0x1202)   0x90            PGS             eng (English)           6079.949                18                      13,973,567      83,539          
00001.M2TS      4611 (0x1203)   0x90            PGS             eng (English)           6079.949                23                      17,210,487      99,772          
00001.M2TS      4612 (0x1204)   0x90            PGS             ara (Arabic)            6079.949                12                      9,066,550       55,511          
00001.M2TS      4613 (0x1205)   0x90            PGS             nld (Dutch)             6079.949                20                      14,871,425      86,494          
00001.M2TS      4614 (0x1206)   0x90            PGS             fra (French)            6079.949                16                      12,276,626      72,237          
00001.M2TS      4615 (0x1207)   0x90            PGS             ind (Indonesian)        6079.949                19                      14,302,316      82,243          
00001.M2TS      4616 (0x1208)   0x90            PGS             kor (Korean)            6079.949                13                      10,191,408      61,650          
00001.M2TS      4617 (0x1209)   0x90            PGS             por (Portuguese)        6079.949                18                      13,560,985      79,245          
00001.M2TS      4618 (0x120A)   0x90            PGS             spa (Spanish)           6079.949                21                      16,169,906      94,007          
00001.M2TS      4619 (0x120B)   0x90            PGS             tha (Thai)              6079.949                19                      14,283,444      83,925          
00001.M2TS      4620 (0x120C)   0x90            PGS             eng (English)           6079.949                76                      57,733,360      326,749         
00001.M2TS      4621 (0x120D)   0x90            PGS             eng (English)           6079.949                76                      57,749,431      326,835         
00001.M2TS      4622 (0x120E)   0x90            PGS             zho (Chinese)           6079.949                59                      45,191,386      258,001         
00001.M2TS      4623 (0x120F)   0x90            PGS             nld (Dutch)             6079.949                62                      47,023,593      267,304         
00001.M2TS      4624 (0x1210)   0x90            PGS             fra (French)            6079.949                58                      43,937,527      251,491         
00001.M2TS      4625 (0x1211)   0x90            PGS             kor (Korean)            6079.949                54                      41,086,772      236,172         
00001.M2TS      4626 (0x1212)   0x90            PGS             por (Portuguese)        6079.949                60                      45,828,194      261,547         
00001.M2TS      4627 (0x1213)   0x90            PGS             spa (Spanish)           6079.949                67                      51,274,172      291,250         
00001.M2TS      4628 (0x1214)   0x90            PGS             tha (Thai)              6079.949                68                      51,579,742      293,292         
00001.M2TS      4629 (0x1215)   0x90            PGS             jpn (Japanese)          6079.949                16                      12,207,043      72,331          
00001.M2TS      4630 (0x1216)   0x90            PGS             zho (Chinese)           6079.949                18                      13,945,828      81,975          

[/code]
<---- END FORUMS PASTE ---->

QUICK SUMMARY:

Disc Title: Zathura: A Space Adventure – Blu-ray™
Disc Label: Zathura.A.Space.Adventure.2005.1080p.Blu-ray.AVC.DTS-HD.MA.5.1-CultFilms™
Disc Size: 37,679,783,986 bytes
Protection: AACS
Playlist: 00002.MPLS
Size: 27,351,232,512 bytes
Length: 1:41:20.074
Total Bitrate: 35.99 Mbps
Video: MPEG-4 AVC Video / 25870 kbps / 1080p / 23.976 fps / 16:9 / High Profile 4.1
Audio: English / DTS-HD Master Audio / 5.1 / 48 kHz /  3740 kbps / 24-bit (DTS Core: 5.1 / 48 kHz /  1509 kbps / 24-bit)
Audio: French / Dolby Digital Audio / 5.1 / 48 kHz /   640 kbps / DN -31dB
Audio: Portuguese / Dolby Digital Audio / 5.1 / 48 kHz /   640 kbps / DN -31dB
Audio: Spanish / Dolby Digital Audio / 5.1 / 48 kHz /   640 kbps / DN -31dB
Audio: Thai / Dolby Digital Audio / 5.1 / 48 kHz /   640 kbps / DN -31dB
Audio: English / Dolby Digital Audio / 2.0 / 48 kHz /   192 kbps / DN -31dB / Dolby Surround
Audio: Japanese / Dolby Digital Audio / 5.1 / 48 kHz /   640 kbps / DN -31dB
* Subtitle: English / 18.384 kbps
* Subtitle: English / 22.641 kbps
Subtitle: English / 18.386 kbps
Subtitle: English / 22.645 kbps
Subtitle: Arabic / 11.930 kbps
Subtitle: Dutch / 19.567 kbps
Subtitle: French / 16.153 kbps
Subtitle: Indonesian / 18.819 kbps
Subtitle: Korean / 13.410 kbps
Subtitle: Portuguese / 17.843 kbps
Subtitle: Spanish / 21.276 kbps
Subtitle: Thai / 18.794 kbps
* Subtitle: English / 75.964 kbps
Subtitle: English / 75.985 kbps
Subtitle: Chinese / 59.462 kbps
Subtitle: Dutch / 61.872 kbps
Subtitle: French / 57.812 kbps
Subtitle: Korean / 54.061 kbps
Subtitle: Portuguese / 60.300 kbps
Subtitle: Spanish / 67.465 kbps
Subtitle: Thai / 67.867 kbps
Subtitle: Japanese / 16.062 kbps
Subtitle: Chinese / 18.350 kbps

